inDegrees=no
num_controls=7
num_derivatives=13
num_iterations=109
num_multipliers=7
num_parameters=0
num_slacks=7
num_states=26
objective=5.754624
objective_accelerations=0.648602
objective_balance=0.052359
objective_effort=0.516706
objective_height=4.516304
objective_ligament=0.020654
solver_duration=1279.126901
status=Solve_Succeeded
success=true
DataType=double
version=3
OpenSimVersion=4.4-2022-07-23-0e9fedc
endheader
time	/jointset/ground_pelvis/pelvis_tilt/value	/jointset/ground_pelvis/pelvis_tx/value	/jointset/ground_pelvis/pelvis_ty/value	/jointset/hip_l/hip_flexion_l/value	/jointset/hip_l/hip_adduction_l/value	/jointset/hip_l/hip_rotation_l/value	/jointset/back/lumbar_extension/value	/jointset/patellofemoral_l/patellar_flexion_l/value	/jointset/knee_l/knee_flexion_l/value	/jointset/knee_l/knee_adduction_l/value	/jointset/knee_l/knee_rotation_l/value	/jointset/ankle_l/ankle_angle_l/value	/jointset/subtalar_l/subtalar_angle_l/value	/jointset/ground_pelvis/pelvis_tilt/speed	/jointset/ground_pelvis/pelvis_tx/speed	/jointset/ground_pelvis/pelvis_ty/speed	/jointset/hip_l/hip_flexion_l/speed	/jointset/hip_l/hip_adduction_l/speed	/jointset/hip_l/hip_rotation_l/speed	/jointset/back/lumbar_extension/speed	/jointset/patellofemoral_l/patellar_flexion_l/speed	/jointset/knee_l/knee_flexion_l/speed	/jointset/knee_l/knee_adduction_l/speed	/jointset/knee_l/knee_rotation_l/speed	/jointset/ankle_l/ankle_angle_l/speed	/jointset/subtalar_l/subtalar_angle_l/speed	/forceset/tau_hip_flexion_l	/forceset/tau_hip_adduction_l	/forceset/tau_hip_rotation_l	/forceset/tau_knee_flexion_l	/forceset/tau_ankle_angle_l	/forceset/tau_subtalar_angle_l	/forceset/tau_lumbar_extension	lambda_cid13_p0	lambda_cid13_p1	lambda_cid13_p2	lambda_cid13_p3	lambda_cid13_p4	lambda_cid13_p5	lambda_cid14_p0	/jointset/ground_pelvis/pelvis_tilt/accel	/jointset/ground_pelvis/pelvis_tx/accel	/jointset/ground_pelvis/pelvis_ty/accel	/jointset/hip_l/hip_flexion_l/accel	/jointset/hip_l/hip_adduction_l/accel	/jointset/hip_l/hip_rotation_l/accel	/jointset/back/lumbar_extension/accel	/jointset/patellofemoral_l/patellar_flexion_l/accel	/jointset/knee_l/knee_flexion_l/accel	/jointset/knee_l/knee_adduction_l/accel	/jointset/knee_l/knee_rotation_l/accel	/jointset/ankle_l/ankle_angle_l/accel	/jointset/subtalar_l/subtalar_angle_l/accel	gamma_cid13_p0	gamma_cid13_p1	gamma_cid13_p2	gamma_cid13_p3	gamma_cid13_p4	gamma_cid13_p5	gamma_cid14_p0
0	-0.1563656984180977	0.05715954576834802	0.8978730014404862	0.3774920279260975	-0.2609307160177993	-0.2419782077010739	-0.0126506700172305	0.03223623128433777	0.03223623128433527	-0.174532486982525	0.1449567066327124	-0.04231376238535053	-0.01141716127813256	0	0	0	0	0	0	0	0	0	0	0	0	0	0.1409274747339816	-0.05265391835549783	-0.04068653251112936	-0.2646909035382344	0.2263299534756875	-0.03951189798064263	-0.09294406112426146	30.33920209381138	6.489518701995011	4.68346911542132	26.47202982597631	-586.6246787802573	-61.45926022520722	-38.18011893281547	-5.015594825462698	-2.927082074770284	-1.239976903002136	13.92777432835469	-1.043030136805393	2.453102044767767	-6.257260636555201	8.463223689876594	8.463223689868459	0.04478328193819141	0.3866885291116011	-0.4279696637488297	-1.165879654983304	-9.974738518611891e-09	7.929714142460508e-08	5.820863410808275e-08	-7.186610152594152e-09	8.967666463452686e-08	3.127199059222878e-08	-8.225762749864566e-09
0.01	-0.1566083426060238	0.05701470035992357	0.8978123091287121	0.3781721853338473	-0.2609830088805286	-0.2418562727378711	-0.01296456943298028	0.03264979591022552	0.03264979591011537	-0.1745326486509157	0.1449736707394377	-0.04233709673550524	-0.01147602066914759	-0.04826078849570925	-0.02885911656941824	-0.0120947470768415	0.1354025546018701	-0.01039858100665469	0.0242704869460912	-0.06233644194336401	0.08235079638047249	0.08235079638044858	-1.558214754194479e-05	0.003383890059035233	-0.004664702689768573	-0.01171069788114124	0.1335503898262705	-0.06278467962937852	-0.03920320428585401	-0.2560114703736177	0.2129756494022163	-0.02456636288484636	-0.08698216560668989	26.60939441976866	0.9089247723807606	5.279395159830112	27.81437191832788	-587.5506894856971	-72.17060654914737	-38.19253732504525	-4.691119181350712	-2.848833117242191	-1.187648382544572	13.25215296976826	-1.029287730013224	2.396538857504663	-6.155319793334719	8.066689938778005	8.06668993877984	-0.02219938875127501	0.3128933758588445	-0.4853948289687839	-1.164507083822613	-2.191980662704612e-08	9.595165834476926e-08	8.026827282958417e-08	2.376687482623002e-09	-1.042559758332324e-08	5.194666100716067e-08	-1.168880286712106e-08
0.02	-0.1573255543428538	0.05658456245196364	0.8976319843916688	0.3801874996764152	-0.2611374906828058	-0.2414951295376364	-0.0138885300321705	0.03387600496518165	0.03387600496519215	-0.1745324602286124	0.1450242045732301	-0.04240701296403276	-0.01165015548480314	-0.09491350978054176	-0.05705849990709892	-0.02392648505382655	0.2670313869503905	-0.0204377879100113	0.04784164741117773	-0.1220122366911105	0.1625288858267818	0.1625288858267817	7.001867892725391e-05	0.00671394538041625	-0.009316375674646356	-0.02305508492798988	0.126173304919339	-0.07291544090326506	-0.03771987605940417	-0.2473320372086649	0.1996213453289038	-0.009620827789034867	-0.08102027008867284	22.95359606540495	-4.684529659391223	5.877261227335834	29.11366233822466	-587.2822074823661	-82.79834356112478	-38.22922199134344	-4.693981383287596	-2.795135428422489	-1.187375083030681	13.173029877685	-0.971155316143874	2.313236748566903	-5.725131197432036	8.028682303043993	8.0286823030454	0.06501987674419979	0.3759215815805247	-0.4253637227697865	-1.092617488122717	-3.386487473548035e-08	1.126061752649335e-07	1.023279115510856e-07	1.193998511784015e-08	-1.105278598011733e-07	7.262133142209257e-08	-1.515184298437756e-08
0.03	-0.1585020586123734	0.05587647250165401	0.8973344019769163	0.3835003227426416	-0.2613905057106802	-0.2409016043819839	-0.01539557926892816	0.03589325051119028	0.03589325051133094	-0.1745309530694433	0.1451076539322328	-0.04252244696078702	-0.0119356285459249	-0.1401546300202638	-0.08437235256799365	-0.03556480322603722	0.3948451273695263	-0.03011376398438646	0.07076361489604663	-0.1789638843283948	0.2405486826319781	0.2405486826319973	0.000212104001089244	0.009950475718170494	-0.01368069623515343	-0.03396671313795527	0.1212651112586319	-0.06861221193032682	-0.03733991644369693	-0.2451614169828641	0.2006525628190043	-0.01264489111230975	-0.0765977345509174	23.24875883943439	-3.51410729044459	5.794889832682458	27.46939241254193	-587.0195047493994	-79.75638080523343	-38.28904639959966	-4.404275558707446	-2.671437118446025	-1.148303493606028	12.48232381979622	-0.9581125399680219	2.266696295957956	-5.61512259759622	7.632900300277814	7.632900300280548	-0.01407109063635506	0.293687322469053	-0.4285063263165971	-1.079542748864923	-5.216329723130898e-08	1.215552846779691e-07	1.304299039765595e-07	2.891991111593417e-08	-2.22404957149531e-07	6.995710233405378e-08	-1.93910816380177e-08
0.04	-0.1601239937272033	0.05490085863803322	0.8969211877185806	0.3880706387521342	-0.2617387392566686	-0.2400818556419661	-0.0174591331922324	0.03867954841157853	0.03867954841158178	-0.1745285998471998	0.145222702306895	-0.04267883218387142	-0.01232803934143316	-0.1839996788356603	-0.1105632825693335	-0.04705285377047905	0.5185299756194542	-0.03948149153411142	0.09308636428137962	-0.2333131739945324	0.3163393566779762	0.3163393566780158	0.0002392312997371891	0.01303374855977994	-0.01750662094067837	-0.04444263180516735	0.1163569175972948	-0.06430898295732698	-0.03695995682944244	-0.2429907967571687	0.2016837803090261	-0.01566895443552348	-0.07217519901362554	23.61032106596765	-2.355668120571608	5.714838044774157	25.78086532573188	-585.7009129848539	-76.63591799235903	-38.37067706953087	-4.414767098422923	-2.57055089651087	-1.157321557476867	12.34725144384338	-0.9095056112135635	2.193393128659795	-5.204659603202949	7.582857751204333	7.582857751205987	0.04202827204201499	0.3452700823514883	-0.3176845517724654	-1.005475579571547	-7.059271672481584e-08	1.303455197094145e-07	1.586564810144864e-07	4.605275728645863e-08	-3.345248346036724e-07	6.681165882327331e-08	-2.364632438519152e-08
0.05	-0.1621778844456193	0.05366851502374077	0.8963935430651973	0.3938587279807125	-0.2621787834383498	-0.2390420523237949	-0.02005290056961292	0.04221328892520426	0.04221328892525066	-0.1745259420340864	0.1453681410049323	-0.04287106971069402	-0.01282277986844904	-0.226538655990568	-0.1357574673278287	-0.05847259546110213	0.6384586259142184	-0.04845846594636001	0.1147580289894729	-0.2850348662011021	0.3900537391482146	0.3900537391482036	0.0002953806533279117	0.01604461864809676	-0.02089738466668048	-0.05442653474763369	0.1096165356840037	-0.0631570277786989	-0.03609579315607571	-0.2381609997764516	0.1974749615758127	-0.01398301102048059	-0.06664540538962854	22.46693088440747	-2.904288099759389	5.821279899837315	25.34725955199843	-584.1719884910156	-76.77717049093845	-38.47244475663754	-4.137496168821215	-2.471646970377323	-1.133846068972258	11.72127413737074	-0.8814755873185137	2.13658828620883	-5.09510873824759	7.212482222727552	7.212482222719027	-0.01210421572727264	0.2775667030977609	-0.3432484173345418	-0.9830450017497632	-7.777291765619222e-08	1.391858205442569e-07	1.626737307817456e-07	5.503233858698347e-08	-3.891507837113789e-07	7.364217937805917e-08	-2.382056638552077e-08
0.06	-0.1646499715645636	0.05218867062089351	0.8957517918760819	0.400827224175244	-0.2627065338103733	-0.2377890253296875	-0.02315172181084472	0.04647352400915668	0.04647352400916318	-0.1745226252240234	0.145543402649967	-0.04309591010164053	-0.01341499889492295	-0.2676389589373614	-0.1600634402802985	-0.06987416091686155	0.7546113688121053	-0.05702272960214351	0.135731099470569	-0.3343239467622836	0.4616382707302086	0.4616382707301339	0.000371030697141892	0.01899833797745055	-0.02402719376549641	-0.0639383316967177	0.102876153770771	-0.06200507259999186	-0.03523162948315419	-0.2333312027955495	0.1932661428426708	-0.0122970676053388	-0.06111561176567808	21.38104168841204	-3.46174146934951	5.927720736716466	24.87195797275411	-581.7207549650891	-76.84298219020572	-38.59266292273248	-4.127032256800514	-2.392908535305102	-1.1536863105041	11.59206996446785	-0.8269634599204142	2.053674283260425	-4.7181372741256	7.156887573555442	7.156887573554465	0.04592841008697898	0.3338399305588144	-0.2654936263343247	-0.9110543808947291	-8.447946727968943e-08	1.480282294129266e-07	1.656716404533977e-07	6.366862452456094e-08	-4.413559358360777e-07	8.08927405250794e-08	-2.382297677545656e-08
0.07000000000000001	-0.1675265110281969	0.05047034077138403	0.8949959089100199	0.4089391009846489	-0.2633178151322098	-0.2363295837484091	-0.02673062114613767	0.05143918290714219	0.05143918290709178	-0.174518419871687	0.1457478148061501	-0.04335054580453818	-0.01409988607799545	-0.3074323602191931	-0.1834365681217588	-0.08131029780594813	0.8671012322367769	-0.06517188544245811	0.1560600566215051	-0.3810464102697385	0.5311040115865486	0.5311040115866132	0.0004424995151128204	0.0218462421779736	-0.02685537671027977	-0.07296743806007758	0.09604304834764067	-0.06023150968824284	-0.03449210337873241	-0.2296251203999408	0.1911272689639716	-0.01164117963292417	-0.05547713907460938	20.91502766614169	-3.68774261894665	5.989731064813365	23.88074855538683	-579.454615743448	-76.20340183961956	-38.72933323689765	-3.870011555230963	-2.284607843170042	-1.139846108566482	10.97801818501927	-0.7996576702891063	2.007907630234432	-4.587874386190463	6.782997516229672	6.782997516250975	-0.01634251610988421	0.2545645475132017	-0.2847968764029577	-0.8881301304974106	-9.245742472632458e-08	1.571205161131035e-07	1.765822979367213e-07	7.290524515082106e-08	-4.777360418482476e-07	8.15864780698194e-08	-2.493513391391847e-08
